<svg role="img" viewBox="0 0 24 24" xmlns="http://www.w3.org/2000/svg" width="22px" height="22px" data-testid="route"><g stroke="#b7b5ff" fill="none" fill-rule="evenodd" stroke-dasharray="0,0"><path d="M8.9 4.595c.47 2.03-.82 3.75-1.94 4.82-.82.78-2.11.77-2.93 0-1.11-1.07-2.4-2.79-1.93-4.82.8-3.46 6.01-3.46 6.8 0zM21.94 16.595c.47 2.03-.82 3.75-1.95 4.82-.82.78-2.12.77-2.94 0-1.13-1.07-2.42-2.79-1.95-4.82.8-3.46 6.04-3.46 6.84 0z" stroke-width="1.5"></path><path d="M12.03 4.995h2.68c1.85 0 2.71 2.29 1.32 3.51l-7.99 6.99c-1.39 1.21-.53 3.5 1.31 3.5h2.68" stroke-width="1.5" stroke-linecap="round" stroke-linejoin="round"></path><path stroke-width="2" stroke-linecap="round" stroke-linejoin="round" d="M5.516 5.495h.011M18.516 17.495h.011"></path></g></svg>