<svg version="1.0" xmlns="http://www.w3.org/2000/svg" width="48px" height="48px" viewBox="0 0 512.000000 512.000000" preserveAspectRatio="xMidYMid meet">

 <g transform="translate(0.000000,512.000000) scale(0.100000,-0.100000)" fill="#f5f5f5" stroke="none">
    <path d="M2625 5016 c-133 -43 -226 -123 -282 -241 -30 -64 -36 -90 -41 -163
                        -8 -149 37 -261 144 -361 177 -166 446 -160 620 13 121 121 163 289 114 447
                        -39 126 -116 216 -238 276 -70 35 -82 38 -176 40 -64 2 -116 -2 -141 -11z
                        m248 -156 c70 -33 114 -76 148 -145 29 -60 31 -70 27 -148 -5 -99 -30 -151
                        -104 -215 -62 -55 -127 -76 -218 -70 -338 22 -384 503 -56 595 58 16 147 9
                        203 -17z"/>
    <path d="M3495 4483 c-107 -39 -109 -41 -310 -384 l-138 -237 -41 18 c-1016
                        447 -1307 572 -1345 581 -25 6 -66 7 -91 4 -49 -7 -132 -43 -167 -72 -12 -10
                        -152 -181 -311 -380 -311 -390 -319 -402 -315 -510 5 -138 115 -251 253 -261
                        139 -10 183 24 411 318 100 129 192 247 204 261 l21 26 100 -44 c54 -24 103
                        -48 108 -53 5 -5 -75 -172 -183 -383 -118 -233 -197 -399 -207 -438 -21 -81
                        -14 -203 15 -278 46 -121 65 -139 486 -471 218 -172 407 -327 421 -344 13 -17
                        165 -224 337 -461 l312 -430 63 -32 c187 -97 403 22 419 232 4 43 0 77 -11
                        111 -11 31 -134 216 -344 513 l-327 465 -255 245 c-140 135 -255 252 -254 260
                        0 26 375 603 388 598 6 -3 84 -37 174 -77 145 -64 169 -72 226 -72 36 0 88 8
                        117 17 97 33 130 78 366 500 117 209 219 397 228 417 19 48 19 132 -1 190 -46
                        138 -213 219 -349 171z m172 -164 c36 -33 56 -84 47 -122 -8 -40 -427 -784
                        -461 -819 -32 -34 -84 -52 -128 -45 -18 3 -121 44 -229 92 -167 74 -200 85
                        -224 77 -38 -12 -501 -731 -502 -779 0 -40 -12 -26 305 -328 l260 -248 283
                        -401 c404 -572 374 -525 374 -581 0 -52 -18 -84 -66 -119 -37 -28 -113 -27
                        -151 0 -15 11 -174 222 -353 470 l-327 449 -340 268 c-501 394 -472 369 -507
                        442 -24 53 -29 77 -30 142 l-1 78 222 437 c121 240 221 445 221 456 0 11 -8
                        29 -17 40 -21 25 -373 182 -406 182 -31 0 -52 -24 -290 -331 -216 -279 -232
                        -294 -304 -292 -87 3 -150 107 -109 184 7 14 137 180 289 370 289 361 307 379
                        382 379 24 0 259 -98 741 -310 388 -170 718 -310 732 -310 15 0 33 4 41 9 7 5
                        91 141 186 302 193 330 205 344 288 336 32 -3 56 -12 74 -28z"/>
     <path d="M597 2680 c-89 -23 -168 -84 -209 -163 -15 -30 -23 -66 -26 -125 -4
                        -77 -2 -87 27 -147 25 -51 47 -77 99 -119 181 -144 811 -622 841 -638 95 -49
                        204 -44 302 15 58 34 90 77 255 341 82 132 89 162 48 195 -33 26 -64 27 -90 3
                        -11 -10 -71 -101 -134 -202 -65 -102 -129 -193 -147 -207 -38 -29 -99 -40
                        -143 -25 -44 16 -870 651 -892 687 -28 47 -33 90 -13 141 33 88 142 131 218
                        86 19 -11 171 -124 337 -251 308 -236 332 -250 372 -218 28 22 148 211 148
                        233 0 32 -38 74 -66 74 -40 0 -59 -15 -100 -80 -22 -33 -41 -60 -44 -60 -3 0
                        -124 93 -270 205 -146 113 -287 216 -315 230 -57 28 -142 39 -198 25z"/>
    <path d="M4912 2400 c-14 -16 -312 -386 -662 -822 l-636 -793 -370 -5 -369 -5
                        -222 -108 -222 -108 -431 230 c-237 127 -441 231 -453 231 -12 0 -335 -174
                        -719 -387 -693 -385 -718 -401 -718 -449 0 -23 46 -64 73 -64 13 0 320 165
                        683 366 362 202 666 369 674 371 9 2 207 -98 440 -223 238 -128 436 -227 450
                        -227 14 0 130 50 258 112 l234 111 373 0 c341 0 375 2 393 18 19 16 1299 1610
                        1335 1662 25 36 22 75 -9 99 -37 29 -71 27 -102 -9z"/>
</g>
</svg>